<mxfile host="65bd71144e">
    <diagram id="6ejzIv3NxOEPaaskWcar" name="Page-1">
        <mxGraphModel dx="2469" dy="519" grid="1" gridSize="10" guides="1" tooltips="1" connect="1" arrows="1" fold="1" page="1" pageScale="1" pageWidth="1100" pageHeight="850" math="0" shadow="0">
            <root>
                <mxCell id="0"/>
                <mxCell id="1" parent="0"/>
                <mxCell id="2" value="&lt;span style=&quot;color: rgb(255 , 255 , 255) ; font-family: &amp;#34;roboto&amp;#34; , , &amp;#34;blinkmacsystemfont&amp;#34; , &amp;#34;apple color emoji&amp;#34; , &amp;#34;segoe ui&amp;#34; , &amp;#34;oxygen&amp;#34; , &amp;#34;ubuntu&amp;#34; , &amp;#34;cantarell&amp;#34; , &amp;#34;fira sans&amp;#34; , &amp;#34;droid sans&amp;#34; , &amp;#34;helvetica neue&amp;#34; , sans-serif ; font-size: 16px ; background-color: rgb(33 , 33 , 33)&quot;&gt;&amp;nbsp;Группа начинающих программистов решила поучаствовать в хакатоне с целью демонстрации&lt;/span&gt;&lt;br style=&quot;box-sizing: border-box ; color: rgb(255 , 255 , 255) ; font-family: &amp;#34;roboto&amp;#34; , , &amp;#34;blinkmacsystemfont&amp;#34; , &amp;#34;apple color emoji&amp;#34; , &amp;#34;segoe ui&amp;#34; , &amp;#34;oxygen&amp;#34; , &amp;#34;ubuntu&amp;#34; , &amp;#34;cantarell&amp;#34; , &amp;#34;fira sans&amp;#34; , &amp;#34;droid sans&amp;#34; , &amp;#34;helvetica neue&amp;#34; , sans-serif ; font-size: 16px ; background-color: rgb(33 , 33 , 33)&quot;&gt;&lt;span style=&quot;color: rgb(255 , 255 , 255) ; font-family: &amp;#34;roboto&amp;#34; , , &amp;#34;blinkmacsystemfont&amp;#34; , &amp;#34;apple color emoji&amp;#34; , &amp;#34;segoe ui&amp;#34; , &amp;#34;oxygen&amp;#34; , &amp;#34;ubuntu&amp;#34; , &amp;#34;cantarell&amp;#34; , &amp;#34;fira sans&amp;#34; , &amp;#34;droid sans&amp;#34; , &amp;#34;helvetica neue&amp;#34; , sans-serif ; font-size: 16px ; background-color: rgb(33 , 33 , 33)&quot;&gt;своих навыков.&lt;/span&gt;&lt;br style=&quot;box-sizing: border-box ; color: rgb(255 , 255 , 255) ; font-family: &amp;#34;roboto&amp;#34; , , &amp;#34;blinkmacsystemfont&amp;#34; , &amp;#34;apple color emoji&amp;#34; , &amp;#34;segoe ui&amp;#34; , &amp;#34;oxygen&amp;#34; , &amp;#34;ubuntu&amp;#34; , &amp;#34;cantarell&amp;#34; , &amp;#34;fira sans&amp;#34; , &amp;#34;droid sans&amp;#34; , &amp;#34;helvetica neue&amp;#34; , sans-serif ; font-size: 16px ; background-color: rgb(33 , 33 , 33)&quot;&gt;&lt;span style=&quot;color: rgb(255 , 255 , 255) ; font-family: &amp;#34;roboto&amp;#34; , , &amp;#34;blinkmacsystemfont&amp;#34; , &amp;#34;apple color emoji&amp;#34; , &amp;#34;segoe ui&amp;#34; , &amp;#34;oxygen&amp;#34; , &amp;#34;ubuntu&amp;#34; , &amp;#34;cantarell&amp;#34; , &amp;#34;fira sans&amp;#34; , &amp;#34;droid sans&amp;#34; , &amp;#34;helvetica neue&amp;#34; , sans-serif ; font-size: 16px ; background-color: rgb(33 , 33 , 33)&quot;&gt;&amp;nbsp;Немного подумав они вспомнили, что не так давно на занятиях по математике&lt;/span&gt;&lt;br style=&quot;box-sizing: border-box ; color: rgb(255 , 255 , 255) ; font-family: &amp;#34;roboto&amp;#34; , , &amp;#34;blinkmacsystemfont&amp;#34; , &amp;#34;apple color emoji&amp;#34; , &amp;#34;segoe ui&amp;#34; , &amp;#34;oxygen&amp;#34; , &amp;#34;ubuntu&amp;#34; , &amp;#34;cantarell&amp;#34; , &amp;#34;fira sans&amp;#34; , &amp;#34;droid sans&amp;#34; , &amp;#34;helvetica neue&amp;#34; , sans-serif ; font-size: 16px ; background-color: rgb(33 , 33 , 33)&quot;&gt;&lt;span style=&quot;color: rgb(255 , 255 , 255) ; font-family: &amp;#34;roboto&amp;#34; , , &amp;#34;blinkmacsystemfont&amp;#34; , &amp;#34;apple color emoji&amp;#34; , &amp;#34;segoe ui&amp;#34; , &amp;#34;oxygen&amp;#34; , &amp;#34;ubuntu&amp;#34; , &amp;#34;cantarell&amp;#34; , &amp;#34;fira sans&amp;#34; , &amp;#34;droid sans&amp;#34; , &amp;#34;helvetica neue&amp;#34; , sans-serif ; font-size: 16px ; background-color: rgb(33 , 33 , 33)&quot;&gt;&amp;nbsp;они проходили тему &quot;свойства делимости целых чисел&quot;.На этом занятии преподаватель показывал&lt;/span&gt;&lt;br style=&quot;box-sizing: border-box ; color: rgb(255 , 255 , 255) ; font-family: &amp;#34;roboto&amp;#34; , , &amp;#34;blinkmacsystemfont&amp;#34; , &amp;#34;apple color emoji&amp;#34; , &amp;#34;segoe ui&amp;#34; , &amp;#34;oxygen&amp;#34; , &amp;#34;ubuntu&amp;#34; , &amp;#34;cantarell&amp;#34; , &amp;#34;fira sans&amp;#34; , &amp;#34;droid sans&amp;#34; , &amp;#34;helvetica neue&amp;#34; , sans-serif ; font-size: 16px ; background-color: rgb(33 , 33 , 33)&quot;&gt;&lt;span style=&quot;color: rgb(255 , 255 , 255) ; font-family: &amp;#34;roboto&amp;#34; , , &amp;#34;blinkmacsystemfont&amp;#34; , &amp;#34;apple color emoji&amp;#34; , &amp;#34;segoe ui&amp;#34; , &amp;#34;oxygen&amp;#34; , &amp;#34;ubuntu&amp;#34; , &amp;#34;cantarell&amp;#34; , &amp;#34;fira sans&amp;#34; , &amp;#34;droid sans&amp;#34; , &amp;#34;helvetica neue&amp;#34; , sans-serif ; font-size: 16px ; background-color: rgb(33 , 33 , 33)&quot;&gt;&amp;nbsp;пример с использованием фактов делимости.&lt;/span&gt;&lt;br style=&quot;box-sizing: border-box ; color: rgb(255 , 255 , 255) ; font-family: &amp;#34;roboto&amp;#34; , , &amp;#34;blinkmacsystemfont&amp;#34; , &amp;#34;apple color emoji&amp;#34; , &amp;#34;segoe ui&amp;#34; , &amp;#34;oxygen&amp;#34; , &amp;#34;ubuntu&amp;#34; , &amp;#34;cantarell&amp;#34; , &amp;#34;fira sans&amp;#34; , &amp;#34;droid sans&amp;#34; , &amp;#34;helvetica neue&amp;#34; , sans-serif ; font-size: 16px ; background-color: rgb(33 , 33 , 33)&quot;&gt;&lt;span style=&quot;color: rgb(255 , 255 , 255) ; font-family: &amp;#34;roboto&amp;#34; , , &amp;#34;blinkmacsystemfont&amp;#34; , &amp;#34;apple color emoji&amp;#34; , &amp;#34;segoe ui&amp;#34; , &amp;#34;oxygen&amp;#34; , &amp;#34;ubuntu&amp;#34; , &amp;#34;cantarell&amp;#34; , &amp;#34;fira sans&amp;#34; , &amp;#34;droid sans&amp;#34; , &amp;#34;helvetica neue&amp;#34; , sans-serif ; font-size: 16px ; background-color: rgb(33 , 33 , 33)&quot;&gt;&amp;nbsp;Пример заключался в следующем:&lt;/span&gt;&lt;br style=&quot;box-sizing: border-box ; color: rgb(255 , 255 , 255) ; font-family: &amp;#34;roboto&amp;#34; , , &amp;#34;blinkmacsystemfont&amp;#34; , &amp;#34;apple color emoji&amp;#34; , &amp;#34;segoe ui&amp;#34; , &amp;#34;oxygen&amp;#34; , &amp;#34;ubuntu&amp;#34; , &amp;#34;cantarell&amp;#34; , &amp;#34;fira sans&amp;#34; , &amp;#34;droid sans&amp;#34; , &amp;#34;helvetica neue&amp;#34; , sans-serif ; font-size: 16px ; background-color: rgb(33 , 33 , 33)&quot;&gt;&lt;span style=&quot;color: rgb(255 , 255 , 255) ; font-family: &amp;#34;roboto&amp;#34; , , &amp;#34;blinkmacsystemfont&amp;#34; , &amp;#34;apple color emoji&amp;#34; , &amp;#34;segoe ui&amp;#34; , &amp;#34;oxygen&amp;#34; , &amp;#34;ubuntu&amp;#34; , &amp;#34;cantarell&amp;#34; , &amp;#34;fira sans&amp;#34; , &amp;#34;droid sans&amp;#34; , &amp;#34;helvetica neue&amp;#34; , sans-serif ; font-size: 16px ; background-color: rgb(33 , 33 , 33)&quot;&gt;&amp;nbsp;Написав на доске все числа от 1 до N, N = 50, преподаватель разделил числа на несколько групп&lt;/span&gt;&lt;br style=&quot;box-sizing: border-box ; color: rgb(255 , 255 , 255) ; font-family: &amp;#34;roboto&amp;#34; , , &amp;#34;blinkmacsystemfont&amp;#34; , &amp;#34;apple color emoji&amp;#34; , &amp;#34;segoe ui&amp;#34; , &amp;#34;oxygen&amp;#34; , &amp;#34;ubuntu&amp;#34; , &amp;#34;cantarell&amp;#34; , &amp;#34;fira sans&amp;#34; , &amp;#34;droid sans&amp;#34; , &amp;#34;helvetica neue&amp;#34; , sans-serif ; font-size: 16px ; background-color: rgb(33 , 33 , 33)&quot;&gt;&lt;span style=&quot;color: rgb(255 , 255 , 255) ; font-family: &amp;#34;roboto&amp;#34; , , &amp;#34;blinkmacsystemfont&amp;#34; , &amp;#34;apple color emoji&amp;#34; , &amp;#34;segoe ui&amp;#34; , &amp;#34;oxygen&amp;#34; , &amp;#34;ubuntu&amp;#34; , &amp;#34;cantarell&amp;#34; , &amp;#34;fira sans&amp;#34; , &amp;#34;droid sans&amp;#34; , &amp;#34;helvetica neue&amp;#34; , sans-serif ; font-size: 16px ; background-color: rgb(33 , 33 , 33)&quot;&gt;&amp;nbsp;так, что если одно число делится на другое, то эти числа попадают в разные руппы.&lt;/span&gt;&lt;br style=&quot;box-sizing: border-box ; color: rgb(255 , 255 , 255) ; font-family: &amp;#34;roboto&amp;#34; , , &amp;#34;blinkmacsystemfont&amp;#34; , &amp;#34;apple color emoji&amp;#34; , &amp;#34;segoe ui&amp;#34; , &amp;#34;oxygen&amp;#34; , &amp;#34;ubuntu&amp;#34; , &amp;#34;cantarell&amp;#34; , &amp;#34;fira sans&amp;#34; , &amp;#34;droid sans&amp;#34; , &amp;#34;helvetica neue&amp;#34; , sans-serif ; font-size: 16px ; background-color: rgb(33 , 33 , 33)&quot;&gt;&lt;span style=&quot;color: rgb(255 , 255 , 255) ; font-family: &amp;#34;roboto&amp;#34; , , &amp;#34;blinkmacsystemfont&amp;#34; , &amp;#34;apple color emoji&amp;#34; , &amp;#34;segoe ui&amp;#34; , &amp;#34;oxygen&amp;#34; , &amp;#34;ubuntu&amp;#34; , &amp;#34;cantarell&amp;#34; , &amp;#34;fira sans&amp;#34; , &amp;#34;droid sans&amp;#34; , &amp;#34;helvetica neue&amp;#34; , sans-serif ; font-size: 16px ; background-color: rgb(33 , 33 , 33)&quot;&gt;&amp;nbsp;В результате этого разбиения получилось M групп, для N = 50, M = 6&lt;/span&gt;&lt;br style=&quot;box-sizing: border-box ; color: rgb(255 , 255 , 255) ; font-family: &amp;#34;roboto&amp;#34; , , &amp;#34;blinkmacsystemfont&amp;#34; , &amp;#34;apple color emoji&amp;#34; , &amp;#34;segoe ui&amp;#34; , &amp;#34;oxygen&amp;#34; , &amp;#34;ubuntu&amp;#34; , &amp;#34;cantarell&amp;#34; , &amp;#34;fira sans&amp;#34; , &amp;#34;droid sans&amp;#34; , &amp;#34;helvetica neue&amp;#34; , sans-serif ; font-size: 16px ; background-color: rgb(33 , 33 , 33)&quot;&gt;&lt;span style=&quot;color: rgb(255 , 255 , 255) ; font-family: &amp;#34;roboto&amp;#34; , , &amp;#34;blinkmacsystemfont&amp;#34; , &amp;#34;apple color emoji&amp;#34; , &amp;#34;segoe ui&amp;#34; , &amp;#34;oxygen&amp;#34; , &amp;#34;ubuntu&amp;#34; , &amp;#34;cantarell&amp;#34; , &amp;#34;fira sans&amp;#34; , &amp;#34;droid sans&amp;#34; , &amp;#34;helvetica neue&amp;#34; , sans-serif ; font-size: 16px ; background-color: rgb(33 , 33 , 33)&quot;&gt;&amp;nbsp;N = 50&lt;/span&gt;&lt;br style=&quot;box-sizing: border-box ; color: rgb(255 , 255 , 255) ; font-family: &amp;#34;roboto&amp;#34; , , &amp;#34;blinkmacsystemfont&amp;#34; , &amp;#34;apple color emoji&amp;#34; , &amp;#34;segoe ui&amp;#34; , &amp;#34;oxygen&amp;#34; , &amp;#34;ubuntu&amp;#34; , &amp;#34;cantarell&amp;#34; , &amp;#34;fira sans&amp;#34; , &amp;#34;droid sans&amp;#34; , &amp;#34;helvetica neue&amp;#34; , sans-serif ; font-size: 16px ; background-color: rgb(33 , 33 , 33)&quot;&gt;&lt;span style=&quot;color: rgb(255 , 255 , 255) ; font-family: &amp;#34;roboto&amp;#34; , , &amp;#34;blinkmacsystemfont&amp;#34; , &amp;#34;apple color emoji&amp;#34; , &amp;#34;segoe ui&amp;#34; , &amp;#34;oxygen&amp;#34; , &amp;#34;ubuntu&amp;#34; , &amp;#34;cantarell&amp;#34; , &amp;#34;fira sans&amp;#34; , &amp;#34;droid sans&amp;#34; , &amp;#34;helvetica neue&amp;#34; , sans-serif ; font-size: 16px ; background-color: rgb(33 , 33 , 33)&quot;&gt;&amp;nbsp;Группы получились такими:&lt;/span&gt;&lt;br style=&quot;box-sizing: border-box ; color: rgb(255 , 255 , 255) ; font-family: &amp;#34;roboto&amp;#34; , , &amp;#34;blinkmacsystemfont&amp;#34; , &amp;#34;apple color emoji&amp;#34; , &amp;#34;segoe ui&amp;#34; , &amp;#34;oxygen&amp;#34; , &amp;#34;ubuntu&amp;#34; , &amp;#34;cantarell&amp;#34; , &amp;#34;fira sans&amp;#34; , &amp;#34;droid sans&amp;#34; , &amp;#34;helvetica neue&amp;#34; , sans-serif ; font-size: 16px ; background-color: rgb(33 , 33 , 33)&quot;&gt;&lt;span style=&quot;color: rgb(255 , 255 , 255) ; font-family: &amp;#34;roboto&amp;#34; , , &amp;#34;blinkmacsystemfont&amp;#34; , &amp;#34;apple color emoji&amp;#34; , &amp;#34;segoe ui&amp;#34; , &amp;#34;oxygen&amp;#34; , &amp;#34;ubuntu&amp;#34; , &amp;#34;cantarell&amp;#34; , &amp;#34;fira sans&amp;#34; , &amp;#34;droid sans&amp;#34; , &amp;#34;helvetica neue&amp;#34; , sans-serif ; font-size: 16px ; background-color: rgb(33 , 33 , 33)&quot;&gt;&amp;nbsp;Группа 1: 1&lt;/span&gt;&lt;br style=&quot;box-sizing: border-box ; color: rgb(255 , 255 , 255) ; font-family: &amp;#34;roboto&amp;#34; , , &amp;#34;blinkmacsystemfont&amp;#34; , &amp;#34;apple color emoji&amp;#34; , &amp;#34;segoe ui&amp;#34; , &amp;#34;oxygen&amp;#34; , &amp;#34;ubuntu&amp;#34; , &amp;#34;cantarell&amp;#34; , &amp;#34;fira sans&amp;#34; , &amp;#34;droid sans&amp;#34; , &amp;#34;helvetica neue&amp;#34; , sans-serif ; font-size: 16px ; background-color: rgb(33 , 33 , 33)&quot;&gt;&lt;span style=&quot;color: rgb(255 , 255 , 255) ; font-family: &amp;#34;roboto&amp;#34; , , &amp;#34;blinkmacsystemfont&amp;#34; , &amp;#34;apple color emoji&amp;#34; , &amp;#34;segoe ui&amp;#34; , &amp;#34;oxygen&amp;#34; , &amp;#34;ubuntu&amp;#34; , &amp;#34;cantarell&amp;#34; , &amp;#34;fira sans&amp;#34; , &amp;#34;droid sans&amp;#34; , &amp;#34;helvetica neue&amp;#34; , sans-serif ; font-size: 16px ; background-color: rgb(33 , 33 , 33)&quot;&gt;&amp;nbsp;Группа 2: 2 3 5 7 11 13 17 19 23 29 31 37 41 43 47&lt;/span&gt;&lt;br style=&quot;box-sizing: border-box ; color: rgb(255 , 255 , 255) ; font-family: &amp;#34;roboto&amp;#34; , , &amp;#34;blinkmacsystemfont&amp;#34; , &amp;#34;apple color emoji&amp;#34; , &amp;#34;segoe ui&amp;#34; , &amp;#34;oxygen&amp;#34; , &amp;#34;ubuntu&amp;#34; , &amp;#34;cantarell&amp;#34; , &amp;#34;fira sans&amp;#34; , &amp;#34;droid sans&amp;#34; , &amp;#34;helvetica neue&amp;#34; , sans-serif ; font-size: 16px ; background-color: rgb(33 , 33 , 33)&quot;&gt;&lt;span style=&quot;color: rgb(255 , 255 , 255) ; font-family: &amp;#34;roboto&amp;#34; , , &amp;#34;blinkmacsystemfont&amp;#34; , &amp;#34;apple color emoji&amp;#34; , &amp;#34;segoe ui&amp;#34; , &amp;#34;oxygen&amp;#34; , &amp;#34;ubuntu&amp;#34; , &amp;#34;cantarell&amp;#34; , &amp;#34;fira sans&amp;#34; , &amp;#34;droid sans&amp;#34; , &amp;#34;helvetica neue&amp;#34; , sans-serif ; font-size: 16px ; background-color: rgb(33 , 33 , 33)&quot;&gt;&amp;nbsp;Группа 3: 4 6 9 10 14 15 21 22 25 26 33 34 35 38 39 46 49&lt;/span&gt;&lt;br style=&quot;box-sizing: border-box ; color: rgb(255 , 255 , 255) ; font-family: &amp;#34;roboto&amp;#34; , , &amp;#34;blinkmacsystemfont&amp;#34; , &amp;#34;apple color emoji&amp;#34; , &amp;#34;segoe ui&amp;#34; , &amp;#34;oxygen&amp;#34; , &amp;#34;ubuntu&amp;#34; , &amp;#34;cantarell&amp;#34; , &amp;#34;fira sans&amp;#34; , &amp;#34;droid sans&amp;#34; , &amp;#34;helvetica neue&amp;#34; , sans-serif ; font-size: 16px ; background-color: rgb(33 , 33 , 33)&quot;&gt;&lt;span style=&quot;color: rgb(255 , 255 , 255) ; font-family: &amp;#34;roboto&amp;#34; , , &amp;#34;blinkmacsystemfont&amp;#34; , &amp;#34;apple color emoji&amp;#34; , &amp;#34;segoe ui&amp;#34; , &amp;#34;oxygen&amp;#34; , &amp;#34;ubuntu&amp;#34; , &amp;#34;cantarell&amp;#34; , &amp;#34;fira sans&amp;#34; , &amp;#34;droid sans&amp;#34; , &amp;#34;helvetica neue&amp;#34; , sans-serif ; font-size: 16px ; background-color: rgb(33 , 33 , 33)&quot;&gt;&amp;nbsp;Группа 4: 8 12 18 20 27 28 30 42 44 45 50&lt;/span&gt;&lt;br style=&quot;box-sizing: border-box ; color: rgb(255 , 255 , 255) ; font-family: &amp;#34;roboto&amp;#34; , , &amp;#34;blinkmacsystemfont&amp;#34; , &amp;#34;apple color emoji&amp;#34; , &amp;#34;segoe ui&amp;#34; , &amp;#34;oxygen&amp;#34; , &amp;#34;ubuntu&amp;#34; , &amp;#34;cantarell&amp;#34; , &amp;#34;fira sans&amp;#34; , &amp;#34;droid sans&amp;#34; , &amp;#34;helvetica neue&amp;#34; , sans-serif ; font-size: 16px ; background-color: rgb(33 , 33 , 33)&quot;&gt;&lt;span style=&quot;color: rgb(255 , 255 , 255) ; font-family: &amp;#34;roboto&amp;#34; , , &amp;#34;blinkmacsystemfont&amp;#34; , &amp;#34;apple color emoji&amp;#34; , &amp;#34;segoe ui&amp;#34; , &amp;#34;oxygen&amp;#34; , &amp;#34;ubuntu&amp;#34; , &amp;#34;cantarell&amp;#34; , &amp;#34;fira sans&amp;#34; , &amp;#34;droid sans&amp;#34; , &amp;#34;helvetica neue&amp;#34; , sans-serif ; font-size: 16px ; background-color: rgb(33 , 33 , 33)&quot;&gt;&amp;nbsp;Группа 5: 16 24 36 40&lt;/span&gt;&lt;br style=&quot;box-sizing: border-box ; color: rgb(255 , 255 , 255) ; font-family: &amp;#34;roboto&amp;#34; , , &amp;#34;blinkmacsystemfont&amp;#34; , &amp;#34;apple color emoji&amp;#34; , &amp;#34;segoe ui&amp;#34; , &amp;#34;oxygen&amp;#34; , &amp;#34;ubuntu&amp;#34; , &amp;#34;cantarell&amp;#34; , &amp;#34;fira sans&amp;#34; , &amp;#34;droid sans&amp;#34; , &amp;#34;helvetica neue&amp;#34; , sans-serif ; font-size: 16px ; background-color: rgb(33 , 33 , 33)&quot;&gt;&lt;span style=&quot;color: rgb(255 , 255 , 255) ; font-family: &amp;#34;roboto&amp;#34; , , &amp;#34;blinkmacsystemfont&amp;#34; , &amp;#34;apple color emoji&amp;#34; , &amp;#34;segoe ui&amp;#34; , &amp;#34;oxygen&amp;#34; , &amp;#34;ubuntu&amp;#34; , &amp;#34;cantarell&amp;#34; , &amp;#34;fira sans&amp;#34; , &amp;#34;droid sans&amp;#34; , &amp;#34;helvetica neue&amp;#34; , sans-serif ; font-size: 16px ; background-color: rgb(33 , 33 , 33)&quot;&gt;&amp;nbsp;Группа 6: 32 48&lt;/span&gt;&lt;br style=&quot;box-sizing: border-box ; color: rgb(255 , 255 , 255) ; font-family: &amp;#34;roboto&amp;#34; , , &amp;#34;blinkmacsystemfont&amp;#34; , &amp;#34;apple color emoji&amp;#34; , &amp;#34;segoe ui&amp;#34; , &amp;#34;oxygen&amp;#34; , &amp;#34;ubuntu&amp;#34; , &amp;#34;cantarell&amp;#34; , &amp;#34;fira sans&amp;#34; , &amp;#34;droid sans&amp;#34; , &amp;#34;helvetica neue&amp;#34; , sans-serif ; font-size: 16px ; background-color: rgb(33 , 33 , 33)&quot;&gt;&lt;span style=&quot;color: rgb(255 , 255 , 255) ; font-family: &amp;#34;roboto&amp;#34; , , &amp;#34;blinkmacsystemfont&amp;#34; , &amp;#34;apple color emoji&amp;#34; , &amp;#34;segoe ui&amp;#34; , &amp;#34;oxygen&amp;#34; , &amp;#34;ubuntu&amp;#34; , &amp;#34;cantarell&amp;#34; , &amp;#34;fira sans&amp;#34; , &amp;#34;droid sans&amp;#34; , &amp;#34;helvetica neue&amp;#34; , sans-serif ; font-size: 16px ; background-color: rgb(33 , 33 , 33)&quot;&gt;Задача: найти M при заданном N.&lt;/span&gt;&lt;br style=&quot;box-sizing: border-box ; color: rgb(255 , 255 , 255) ; font-family: &amp;#34;roboto&amp;#34; , , &amp;#34;blinkmacsystemfont&amp;#34; , &amp;#34;apple color emoji&amp;#34; , &amp;#34;segoe ui&amp;#34; , &amp;#34;oxygen&amp;#34; , &amp;#34;ubuntu&amp;#34; , &amp;#34;cantarell&amp;#34; , &amp;#34;fira sans&amp;#34; , &amp;#34;droid sans&amp;#34; , &amp;#34;helvetica neue&amp;#34; , sans-serif ; font-size: 16px ; background-color: rgb(33 , 33 , 33)&quot;&gt;&lt;span style=&quot;color: rgb(255 , 255 , 255) ; font-family: &amp;#34;roboto&amp;#34; , , &amp;#34;blinkmacsystemfont&amp;#34; , &amp;#34;apple color emoji&amp;#34; , &amp;#34;segoe ui&amp;#34; , &amp;#34;oxygen&amp;#34; , &amp;#34;ubuntu&amp;#34; , &amp;#34;cantarell&amp;#34; , &amp;#34;fira sans&amp;#34; , &amp;#34;droid sans&amp;#34; , &amp;#34;helvetica neue&amp;#34; , sans-serif ; font-size: 16px ; background-color: rgb(33 , 33 , 33)&quot;&gt;И получить разбиение на группы&lt;/span&gt;" style="rounded=1;whiteSpace=wrap;html=1;" vertex="1" parent="1">
                    <mxGeometry x="-60" y="10" width="390" height="620" as="geometry"/>
                </mxCell>
                <mxCell id="3" value="start" style="ellipse;whiteSpace=wrap;html=1;" vertex="1" parent="1">
                    <mxGeometry x="490" y="40" width="120" height="60" as="geometry"/>
                </mxCell>
                <mxCell id="6" value="" style="edgeStyle=none;html=1;" edge="1" parent="1" source="4" target="5">
                    <mxGeometry relative="1" as="geometry"/>
                </mxCell>
                <mxCell id="4" value="void FillArray(int[] fill)" style="ellipse;whiteSpace=wrap;html=1;" vertex="1" parent="1">
                    <mxGeometry x="490" y="560" width="120" height="60" as="geometry"/>
                </mxCell>
                <mxCell id="8" value="" style="edgeStyle=none;html=1;" edge="1" parent="1" source="5" target="7">
                    <mxGeometry relative="1" as="geometry"/>
                </mxCell>
                <mxCell id="11" value="" style="edgeStyle=none;html=1;" edge="1" parent="1" source="5" target="10">
                    <mxGeometry relative="1" as="geometry">
                        <Array as="points">
                            <mxPoint x="390" y="720"/>
                            <mxPoint x="390" y="1000"/>
                        </Array>
                    </mxGeometry>
                </mxCell>
                <mxCell id="5" value="for(int row = 0; row &amp;lt; fill.Length; row++)" style="shape=hexagon;perimeter=hexagonPerimeter2;whiteSpace=wrap;html=1;fixedSize=1;" vertex="1" parent="1">
                    <mxGeometry x="430" y="690" width="240" height="60" as="geometry"/>
                </mxCell>
                <mxCell id="9" style="edgeStyle=none;html=1;entryX=1;entryY=0.5;entryDx=0;entryDy=0;" edge="1" parent="1" source="7" target="5">
                    <mxGeometry relative="1" as="geometry">
                        <Array as="points">
                            <mxPoint x="700" y="860"/>
                            <mxPoint x="700" y="720"/>
                        </Array>
                    </mxGeometry>
                </mxCell>
                <mxCell id="7" value="fill[row] = row + 1;" style="whiteSpace=wrap;html=1;" vertex="1" parent="1">
                    <mxGeometry x="490" y="830" width="120" height="60" as="geometry"/>
                </mxCell>
                <mxCell id="10" value="end" style="ellipse;whiteSpace=wrap;html=1;" vertex="1" parent="1">
                    <mxGeometry x="490" y="970" width="120" height="60" as="geometry"/>
                </mxCell>
                <mxCell id="12" value="" style="ellipse;whiteSpace=wrap;html=1;" vertex="1" parent="1">
                    <mxGeometry x="790" y="560" width="190" height="80" as="geometry"/>
                </mxCell>
            </root>
        </mxGraphModel>
    </diagram>
</mxfile>